[2026-03-15 12:34:58] [INFO] Jarvis Desktop launcher started.
[2026-03-15 12:34:58] [INFO] Runtime log path: C:\Jarvis\logs\runtime_2026-03-15_12-34-58.txt
[2026-03-15 12:34:58] [INFO] Launcher executable: C:\Users\anden\AppData\Local\Python\pythoncore-3.14-64\pythonw.exe
[2026-03-15 12:34:58] [INFO] Root directory: C:\Jarvis
[2026-03-15 12:34:58] [INFO] Target script: C:\Jarvis\jarvis_desktop_test.py
[2026-03-15 12:34:58] [INFO] Diagnostics script: C:\Jarvis\desktop\jarvis_diagnostics.pyw
[2026-03-15 12:34:58] [INFO] Recovery attempts allowed: 3
[2026-03-15 12:34:58] [INFO] Voice hook ready: C:\Jarvis\jarvis_voice.py
[2026-03-15 12:34:58] [INFO] Starting desktop renderer process. attempt=1
[2026-03-15 12:34:58] [INFO] Child executable: C:\Users\anden\AppData\Local\Python\pythoncore-3.14-64\pythonw.exe
[2026-03-15 12:34:58] [STDOUT] Jarvis Desktop Concept 1 - Version 1.02
[2026-03-15 12:34:58] [STDOUT] Hotkey: Ctrl + Alt + End
[2026-03-15 12:34:58] [STDERR] Traceback (most recent call last):
[2026-03-15 12:34:58] [STDERR]   File "C:\Jarvis\jarvis_desktop_test.py", line 44, in <module>
[2026-03-15 12:34:58] [STDERR]     raise SystemExit(main())
[2026-03-15 12:34:58] [STDERR]                      ~~~~^^
[2026-03-15 12:34:58] [STDERR]   File "C:\Jarvis\jarvis_desktop_test.py", line 36, in main
[2026-03-15 12:34:58] [STDERR]     raise RuntimeError("Jarvis test crash triggered intentionally")
[2026-03-15 12:34:58] [STDERR] RuntimeError: Jarvis test crash triggered intentionally
[2026-03-15 12:34:58] [INFO] Desktop renderer exited. exit_code=1
[2026-03-15 12:34:58] [WARN] Recovery attempt 1/3
[2026-03-15 12:34:59] [INFO] Starting desktop renderer process. attempt=2
[2026-03-15 12:34:59] [INFO] Child executable: C:\Users\anden\AppData\Local\Python\pythoncore-3.14-64\pythonw.exe
[2026-03-15 12:35:00] [STDOUT] Jarvis Desktop Concept 1 - Version 1.02
[2026-03-15 12:35:00] [STDOUT] Hotkey: Ctrl + Alt + End
[2026-03-15 12:35:00] [STDERR] Traceback (most recent call last):
[2026-03-15 12:35:00] [STDERR]   File "C:\Jarvis\jarvis_desktop_test.py", line 44, in <module>
[2026-03-15 12:35:00] [STDERR]     raise SystemExit(main())
[2026-03-15 12:35:00] [STDERR]                      ~~~~^^
[2026-03-15 12:35:00] [STDERR]   File "C:\Jarvis\jarvis_desktop_test.py", line 36, in main
[2026-03-15 12:35:00] [STDERR]     raise RuntimeError("Jarvis test crash triggered intentionally")
[2026-03-15 12:35:00] [STDERR] RuntimeError: Jarvis test crash triggered intentionally
[2026-03-15 12:35:00] [INFO] Desktop renderer exited. exit_code=1
[2026-03-15 12:35:00] [WARN] Recovery attempt 2/3
[2026-03-15 12:35:01] [INFO] Starting desktop renderer process. attempt=3
[2026-03-15 12:35:01] [INFO] Child executable: C:\Users\anden\AppData\Local\Python\pythoncore-3.14-64\pythonw.exe
[2026-03-15 12:35:01] [STDOUT] Jarvis Desktop Concept 1 - Version 1.02
[2026-03-15 12:35:01] [STDOUT] Hotkey: Ctrl + Alt + End
[2026-03-15 12:35:01] [STDERR] Traceback (most recent call last):
[2026-03-15 12:35:01] [STDERR]   File "C:\Jarvis\jarvis_desktop_test.py", line 44, in <module>
[2026-03-15 12:35:01] [STDERR]     raise SystemExit(main())
[2026-03-15 12:35:01] [STDERR]                      ~~~~^^
[2026-03-15 12:35:01] [STDERR]   File "C:\Jarvis\jarvis_desktop_test.py", line 36, in main
[2026-03-15 12:35:01] [STDERR]     raise RuntimeError("Jarvis test crash triggered intentionally")
[2026-03-15 12:35:01] [STDERR] RuntimeError: Jarvis test crash triggered intentionally
[2026-03-15 12:35:01] [INFO] Desktop renderer exited. exit_code=1
[2026-03-15 12:35:01] [ERROR] Crash log written: C:\Jarvis\logs\crash\crash_2026-03-15_12-35-01.txt
[2026-03-15 12:35:01] [INFO] Trying voice line 'Uhm..... Sir, I seem to be malfunctioning.' using voice --text --mode
[2026-03-15 12:35:09] [VOICE_STDERR] Input #0, wav, from 'C:/Users/anden/AppData/Local/Temp/tmpbhed2xp0.wav':
[2026-03-15 12:35:09] [VOICE_STDERR]   Metadata:
[2026-03-15 12:35:09] [VOICE_STDERR]     encoder         : Lavf62.13.100
[2026-03-15 12:35:09] [VOICE_STDERR]   Duration: 00:00:06.51, bitrate: 384 kb/s
[2026-03-15 12:35:09] [VOICE_STDERR]   Stream #0:0: Audio: pcm_s16le ([1][0][0][0] / 0x0001), 24000 Hz, 1 channels, s16, 384 kb/s
[2026-03-15 12:35:09] [INFO] Voice line completed: Uhm..... Sir, I seem to be malfunctioning.
[2026-03-15 12:35:09] [INFO] Failure voice step 1/3 success=True line=Uhm..... Sir, I seem to be malfunctioning.
[2026-03-15 12:35:10] [INFO] Trying voice line 'Attempting restart.' using voice --text --mode
[2026-03-15 12:35:15] [VOICE_STDERR] Input #0, wav, from 'C:/Users/anden/AppData/Local/Temp/tmp65p3kzy4.wav':
[2026-03-15 12:35:15] [VOICE_STDERR]   Metadata:
[2026-03-15 12:35:15] [VOICE_STDERR]     encoder         : Lavf62.13.100
[2026-03-15 12:35:15] [VOICE_STDERR]   Duration: 00:00:03.36, bitrate: 384 kb/s
[2026-03-15 12:35:15] [VOICE_STDERR]   Stream #0:0: Audio: pcm_s16le ([1][0][0][0] / 0x0001), 24000 Hz, 1 channels, s16, 384 kb/s
[2026-03-15 12:35:15] [INFO] Voice line completed: Attempting restart.
[2026-03-15 12:35:15] [INFO] Failure voice step 2/3 success=True line=Attempting restart.
[2026-03-15 12:35:16] [INFO] Trying voice line 'Restart failed.' using voice --text --mode
[2026-03-15 12:35:20] [VOICE_STDERR] Input #0, wav, from 'C:/Users/anden/AppData/Local/Temp/tmp_s20r7ex.wav':
[2026-03-15 12:35:20] [VOICE_STDERR]   Metadata:
[2026-03-15 12:35:20] [VOICE_STDERR]     encoder         : Lavf62.13.100
[2026-03-15 12:35:20] [VOICE_STDERR]   Duration: 00:00:03.27, bitrate: 384 kb/s
[2026-03-15 12:35:20] [VOICE_STDERR]   Stream #0:0: Audio: pcm_s16le ([1][0][0][0] / 0x0001), 24000 Hz, 1 channels, s16, 384 kb/s
[2026-03-15 12:35:20] [INFO] Voice line completed: Restart failed.
[2026-03-15 12:35:20] [INFO] Failure voice step 3/3 success=True line=Restart failed.
[2026-03-15 12:35:21] [INFO] Diagnostics process launched.
